<svg t="1742891878426" class="icon" viewBox="0 0 1024 1024" version="1.1" xmlns="http://www.w3.org/2000/svg" p-id="2708" xmlns:xlink="http://www.w3.org/1999/xlink" width="200" height="200"><path d="M341.333333 251.733333v4.266667-4.266667zM341.333333 264.533333v10.666667c2.133333 14.933333 4.266667 29.866667 10.666667 44.8v2.133333c0 2.133333 2.133333 2.133333 2.133333 4.266667v-2.133333 4.266666l2.133334 6.4c14.933333 29.866667 36.266667 53.333333 64 70.4 27.733333 17.066667 59.733333 25.6 91.733333 25.6s64-10.666667 91.733333-27.733333c27.733333-17.066667 49.066667-42.666667 61.866667-72.533333l2.133333-4.266667v-2.133333l2.133334-6.4c8.533333-23.466667 10.666667-46.933333 10.666666-70.4-2.133333-23.466667-8.533333-46.933333-19.2-68.266667s-27.733333-40.533333-44.8-55.466667c-19.2-17.066667-40.533333-27.733333-64-34.133333-23.466667-6.4-46.933333-6.4-70.4-2.133333-23.466667 4.266667-46.933333 12.8-66.133333 27.733333-19.2 12.8-36.266667 32-49.066667 51.2-12.8 21.333333-21.333333 42.666667-23.466666 66.133333V256c-2.133333 2.133333-2.133333 4.266667-2.133334 8.533333z m110.933334-68.266666C467.2 179.2 488.533333 170.666667 512 170.666667s44.8 8.533333 59.733333 25.6c17.066667 14.933333 25.6 36.266667 25.6 59.733333 0 23.466667-8.533333 44.8-25.6 59.733333-14.933333 17.066667-36.266667 25.6-59.733333 25.6s-44.8-8.533333-59.733333-25.6c-17.066667-14.933333-25.6-36.266667-25.6-59.733333 0-23.466667 8.533333-44.8 25.6-59.733333zM870.4 499.2l-2.133333-6.4c-17.066667-91.733333-68.266667-174.933333-145.066667-230.4v-4.266667 4.266667c0 32-8.533333 64-23.466667 91.733333 40.533333 38.4 68.266667 85.333333 81.066667 140.8 32-6.4 61.866667-4.266667 89.6 4.266667zM241.066667 492.8c12.8-53.333333 40.533333-102.4 81.066666-138.666667-14.933333-27.733333-21.333333-59.733333-23.466666-91.733333l-6.4 4.266667-6.4 4.266666c-72.533333 57.6-119.466667 138.666667-132.266667 228.266667 27.733333-8.533333 57.6-10.666667 87.466667-6.4zM155.733333 544h-2.133333 2.133333zM153.6 544h-2.133333 2.133333zM217.6 533.333333H213.333333h4.266667zM625.066667 808.533333c-34.133333 14.933333-72.533333 23.466667-113.066667 23.466667-38.4 0-76.8-8.533333-113.066667-23.466667-14.933333 25.6-34.133333 49.066667-57.6 66.133334 51.2 27.733333 108.8 42.666667 170.666667 42.666666 59.733333 0 117.333333-14.933333 170.666667-42.666666-23.466667-17.066667-42.666667-40.533333-57.6-66.133334zM149.333333 546.133333zM341.333333 817.066667l4.266667-4.266667 2.133333-2.133333c4.266667-4.266667 6.4-10.666667 10.666667-14.933334l2.133333-2.133333 2.133334-2.133333-2.133334 2.133333 2.133334-2.133333V789.333333c12.8-23.466667 21.333333-51.2 21.333333-78.933333s-6.4-55.466667-17.066667-81.066667c-12.8-25.6-32-46.933333-53.333333-61.866666-23.466667-17.066667-49.066667-25.6-76.8-29.866667H221.866667L213.333333 533.333333c-6.4 0-14.933333 0-21.333333 2.133334-4.266667 0-10.666667 2.133333-14.933333 2.133333-2.133333 0-4.266667 0-6.4 2.133333-4.266667 2.133333-8.533333 2.133333-12.8 4.266667h-2.133334l-6.4 2.133333c-23.466667 8.533333-44.8 23.466667-61.866666 42.666667-17.066667 19.2-29.866667 42.666667-38.4 66.133333s-8.533333 51.2-4.266667 76.8c4.266667 25.6 14.933333 49.066667 29.866667 70.4s34.133333 38.4 57.6 51.2c23.466667 12.8 46.933333 19.2 72.533333 21.333334 25.6 2.133333 51.2-2.133333 74.666667-12.8s44.8-25.6 61.866666-44.8z m-68.266666-53.333334c-14.933333 17.066667-36.266667 25.6-59.733334 25.6-23.466667 0-44.8-8.533333-59.733333-25.6C136.533333 748.8 128 727.466667 128 704c0-23.466667 8.533333-44.8 25.6-59.733333 14.933333-17.066667 36.266667-25.6 59.733333-25.6 23.466667 0 44.8 8.533333 59.733334 25.6 17.066667 17.066667 25.6 38.4 25.6 59.733333 0 23.466667-8.533333 44.8-25.6 59.733333zM149.333333 546.133333zM814.933333 533.333333H810.666667h4.266666zM968.533333 637.866667c-8.533333-21.333333-23.466667-42.666667-40.533333-57.6-17.066667-17.066667-38.4-29.866667-59.733333-36.266667-4.266667-2.133333-8.533333-2.133333-12.8-4.266667-12.8-4.266667-23.466667-6.4-36.266667-6.4H791.466667c-27.733333 4.266667-55.466667 14.933333-78.933334 32s-40.533333 38.4-53.333333 64c-12.8 25.6-17.066667 53.333333-17.066667 83.2 2.133333 27.733333 10.666667 55.466667 25.6 81.066667 4.266667 6.4 8.533333 10.666667 12.8 17.066667l2.133334 2.133333 4.266666 4.266667c2.133333 4.266667 6.4 6.4 10.666667 10.666666 4.266667 2.133333 6.4 6.4 10.666667 8.533334 4.266667 2.133333 6.4 4.266667 10.666666 8.533333l2.133334 2.133333 4.266666 2.133334h-2.133333 4.266667c21.333333 12.8 42.666667 19.2 66.133333 23.466666 23.466667 2.133333 46.933333 0 70.4-6.4 23.466667-6.4 44.8-19.2 61.866667-34.133333 17.066667-14.933333 32-34.133333 42.666666-55.466667s14.933333-44.8 17.066667-68.266666c-4.266667-23.466667-8.533333-46.933333-17.066667-70.4z m-98.133333 125.866666c-14.933333 17.066667-36.266667 25.6-59.733333 25.6s-44.8-8.533333-59.733334-25.6c-17.066667-14.933333-25.6-36.266667-25.6-59.733333 0-23.466667 8.533333-44.8 25.6-59.733333C768 627.2 789.333333 618.666667 810.666667 618.666667s44.8 8.533333 59.733333 25.6C887.466667 661.333333 896 682.666667 896 704c0 23.466667-8.533333 44.8-25.6 59.733333z" p-id="2709" fill="#1296db"></path><path d="M791.466667 533.333333h2.133333l-4.266667 2.133334 2.133334-2.133334z" p-id="2710" fill="#1296db"></path></svg>